<?xml version="1.0" standalone="no"?>
<!DOCTYPE svg PUBLIC "-//W3C//DTD SVG 20010904//EN"
 "http://www.w3.org/TR/2001/REC-SVG-20010904/DTD/svg10.dtd">
<svg version="1.0" xmlns="http://www.w3.org/2000/svg"
 width="704.000000pt" height="704.000000pt" viewBox="0 0 704.000000 704.000000"
 preserveAspectRatio="xMidYMid meet">
<metadata>
Created by potrace 1.11, written by Peter Selinger 2001-2013
</metadata>
<g transform="translate(0.000000,704.000000) scale(0.100000,-0.100000)"
fill="#000000" stroke="none">
<path d="M315 6560 l-51 -5 1 -430 0 -430 495 0 495 0 1 -2590 1 -2590 476 -2
476 -1 0 2546 c0 1401 0 2567 1 2592 l0 46 493 -1 492 0 1 38 c1 20 4 40 7 43
3 3 1 19 -3 35 -5 16 -5 31 -1 34 5 2 5 23 1 45 -4 22 -5 40 -1 40 7 0 5 116
-3 136 -3 7 -1 16 3 18 5 3 5 24 1 46 -4 22 -5 40 -1 40 3 0 5 35 4 77 -1 43
-2 105 -2 138 0 33 -1 69 -1 80 -1 43 0 65 2 76 4 14 -23 20 -82 19 -8 0 -39
0 -68 1 -29 1 -55 0 -58 -4 -3 -3 -18 -1 -34 3 -16 4 -31 6 -34 3 -7 -8 -105
-7 -113 1 -3 3 -13 1 -22 -4 -10 -5 -23 -5 -31 0 -7 4 -24 4 -36 0 -14 -6 -26
-5 -29 0 -3 5 -18 5 -33 1 -15 -4 -38 -5 -52 -1 -14 4 -36 4 -50 0 -14 -4 -36
-4 -50 0 -14 4 -37 3 -52 -1 -15 -4 -30 -4 -33 1 -3 5 -15 6 -29 0 -12 -4 -29
-4 -36 0 -8 5 -21 5 -30 0 -9 -5 -22 -5 -29 -1 -7 5 -29 5 -49 1 -20 -3 -48
-3 -62 0 -14 4 -37 3 -52 -1 -15 -4 -30 -4 -33 1 -3 5 -15 6 -29 0 -12 -4 -29
-4 -36 0 -8 5 -21 5 -30 0 -9 -5 -22 -5 -28 -1 -7 4 -35 5 -62 1 -27 -4 -55
-3 -62 1 -6 4 -19 4 -28 -1 -9 -5 -22 -5 -30 0 -7 4 -24 4 -36 0 -14 -6 -26
-5 -29 0 -3 5 -18 5 -34 0 -16 -4 -32 -6 -34 -4 -7 7 -106 9 -112 2 -4 -3 -19
-2 -35 2 -16 4 -31 6 -34 3 -3 -4 -29 -5 -58 -4 -29 1 -60 1 -68 1 -8 0 -24 0
-35 0 -11 1 -27 1 -35 0 -8 0 -24 0 -35 0 -11 1 -26 1 -32 1 -26 -2 -39 -2
-91 0 -29 1 -55 0 -58 -4 -3 -3 -18 -1 -34 3 -16 4 -31 6 -34 3 -7 -8 -105 -7
-113 1 -3 3 -13 1 -22 -4 -10 -5 -23 -5 -31 0 -7 4 -24 4 -36 0 -14 -6 -26 -5
-29 0 -3 5 -18 5 -33 1 -15 -4 -38 -5 -52 -1 -14 4 -36 4 -50 0 -14 -4 -36 -4
-50 0 -14 4 -37 3 -52 -1 -15 -4 -30 -4 -33 1 -3 5 -15 6 -29 0 -12 -4 -29 -4
-36 0 -8 5 -21 5 -30 0 -8 -4 -22 -5 -30 -1 -8 3 -38 4 -65 1z"/>
<path d="M3683 6562 l-23 -3 0 -337 c0 -410 0 -4938 0 -5389 l0 -322 828 3
c455 2 845 6 866 9 114 17 117 18 186 33 14 3 36 7 49 10 59 12 213 70 286
108 164 85 342 246 415 374 8 14 21 32 28 40 6 7 12 18 12 24 0 5 8 22 19 36
44 64 112 273 147 452 4 16 10 63 21 162 9 71 9 3488 1 3558 -17 138 -30 208
-58 315 -103 389 -338 671 -675 807 -90 37 -221 74 -289 83 -21 3 -41 7 -45 9
-17 10 -312 30 -388 27 -26 -2 -39 -2 -91 0 -29 1 -55 0 -58 -4 -3 -3 -18 -1
-34 3 -16 4 -31 6 -34 3 -7 -8 -105 -7 -113 1 -3 3 -13 1 -22 -4 -10 -5 -23
-5 -31 0 -7 4 -24 4 -36 0 -14 -6 -26 -5 -29 0 -3 5 -18 5 -33 1 -15 -4 -38
-5 -52 -1 -14 4 -36 4 -50 0 -14 -4 -36 -4 -50 0 -14 4 -37 3 -52 -1 -15 -4
-30 -4 -33 1 -3 5 -15 6 -29 0 -12 -4 -29 -4 -36 0 -8 5 -21 5 -30 0 -9 -5
-22 -5 -29 -1 -7 5 -29 5 -49 1 -20 -3 -48 -3 -62 0 -14 4 -37 3 -52 -1 -15
-4 -30 -4 -33 1 -3 5 -15 6 -29 0 -12 -4 -29 -4 -36 0 -8 5 -21 5 -30 0 -9 -5
-22 -5 -28 -1 -7 4 -35 5 -62 1 -27 -4 -55 -3 -62 1 -6 4 -19 4 -28 -1 -8 -4
-22 -5 -30 -1 -8 4 -25 5 -37 3z m1550 -876 c159 -36 270 -145 313 -309 9 -34
18 -71 21 -82 4 -15 15 -376 14 -450 0 -11 0 -609 0 -635 0 -8 0 -152 0 -320
0 -168 0 -312 0 -320 0 -8 0 -152 0 -320 0 -168 0 -312 0 -320 0 -15 0 -609 0
-645 -1 -467 -10 -559 -67 -680 -49 -105 -135 -175 -258 -210 -49 -14 -109
-18 -348 -19 l-288 -1 0 377 c0 208 0 1154 0 2103 0 949 0 1751 0 1783 l0 58
293 -2 c160 -1 305 -5 320 -8z"/>
</g>
</svg>
